<svg xmlns="http://www.w3.org/2000/svg" viewBox="0 0 512 512">
  <defs>
    <linearGradient id="grad1" x1="0%" y1="0%" x2="100%" y2="100%">
      <stop offset="0%" style="stop-color:#6c63ff;stop-opacity:1" />
      <stop offset="100%" style="stop-color:#4b45b2;stop-opacity:1" />
    </linearGradient>
  </defs>
  <path fill="url(#grad1)" d="M505.1 19.1C503.8 13 499 8.2 492.9 6.9 460.7 0 435.5 0 410.4 0 307.2 0 245.3 55.2 199.1 128H94.9c-18.2 0-34.8 10.3-42.9 26.5L2.6 253.3c-8 16 3.6 34.7 21.3 34.7h95.1c-5.9 12.8-11.9 25.5-18 37.7-3.1 6.2-1.9 13.6 3 18.5l63.6 63.6c4.9 4.9 12.3 6.1 18.5 3 12.2-6.1 24.9-12 37.7-17.9V488c0 17.7 18.8 29.4 34.7 21.3l98.7-49.3c16.1-8.1 26.5-24.7 26.5-42.9V312.8c72.6-46.3 128-108.4 128-211.1-.1-25.2-1-50.4-6.3-82.6z"/>
</svg>